<?xml version="1.0" standalone="no"?>
<!DOCTYPE svg PUBLIC "-//W3C//DTD SVG 20010904//EN"
 "http://www.w3.org/TR/2001/REC-SVG-20010904/DTD/svg10.dtd">
<svg version="1.0" xmlns="http://www.w3.org/2000/svg"
 width="500.000000pt" height="500.000000pt" viewBox="0 0 500.000000 500.000000"
 preserveAspectRatio="xMidYMid meet">

<g transform="translate(0.000000,500.000000) scale(0.100000,-0.100000)"
fill="#000000" stroke="none">
<path d="M2345 4123 c-341 -44 -677 -204 -914 -436 -183 -179 -290 -335 -386
-562 -93 -221 -136 -539 -106 -790 52 -443 278 -835 636 -1104 186 -140 348
-217 579 -276 152 -38 251 -48 440 -43 140 4 193 10 291 32 322 74 571 212
805 446 235 235 398 558 445 885 21 146 19 378 -5 517 -70 410 -291 769 -635
1029 -189 144 -438 246 -714 294 -77 14 -354 19 -436 8z m416 -37 c526 -79
964 -395 1194 -861 114 -231 153 -390 162 -650 4 -130 2 -197 -11 -282 -86
-585 -491 -1074 -1047 -1266 -207 -72 -424 -98 -652 -79 -321 26 -601 137
-853 338 -262 209 -464 522 -549 853 -58 227 -58 533 1 766 129 507 495 914
992 1101 221 83 527 115 763 80z"/>
<path d="M2546 3999 c-8 -12 -21 -44 -27 -71 -12 -45 -15 -48 -38 -43 -81 16
-145 -119 -90 -189 24 -30 63 -34 91 -9 17 15 19 15 36 0 41 -37 88 -5 126 87
33 80 13 91 -25 14 -13 -29 -32 -54 -42 -56 -33 -6 -19 119 30 271 8 26 -42
23 -61 -4z m-52 -166 c3 -10 0 -40 -7 -68 -9 -39 -16 -50 -32 -50 -18 0 -20 6
-18 48 3 55 17 87 38 87 7 0 16 -8 19 -17z"/>
<path d="M3034 3982 c-28 -18 -35 -51 -18 -87 8 -19 22 -39 30 -46 12 -10 7
-19 -27 -56 -67 -73 -84 -137 -55 -207 28 -67 102 -98 171 -71 114 43 130 174
24 191 -29 5 -40 2 -58 -17 -11 -12 -21 -31 -21 -40 0 -30 21 -33 45 -5 25 29
62 34 72 10 9 -24 -26 -83 -58 -100 -44 -22 -85 -18 -108 12 -39 49 -19 135
46 197 l30 27 49 -22 c121 -54 256 10 183 88 -42 45 -131 53 -201 18 -15 -8
-33 -14 -41 -14 -16 0 -45 61 -49 102 -2 17 -7 25 -14 20z m275 -139 c20 -17
21 -19 6 -40 -13 -18 -26 -23 -61 -23 -40 0 -114 22 -114 34 0 2 15 13 33 25
40 26 107 28 136 4z"/>
<path d="M2745 3849 c-57 -29 -83 -124 -46 -170 29 -38 63 -43 110 -20 44 23
101 89 101 117 0 14 -12 6 -41 -29 -23 -26 -54 -54 -69 -62 -26 -13 -30 -13
-44 1 -29 29 -17 57 29 68 62 15 84 61 43 90 -25 18 -53 19 -83 5z m65 -39 c0
-15 -7 -20 -27 -20 l-28 1 24 19 c29 25 31 25 31 0z"/>
<path d="M2170 3751 c0 -66 -15 -120 -30 -105 -5 5 -17 40 -28 78 -20 74 -31
86 -54 62 -9 -8 -25 -12 -42 -9 -60 12 -94 -62 -70 -153 18 -70 18 -94 -1 -94
-17 0 -59 61 -90 130 l-19 42 22 18 c22 18 30 40 14 40 -4 0 -13 -5 -19 -11
-14 -14 -33 -3 -33 17 0 9 -7 14 -17 12 -13 -2 -19 -15 -21 -42 -2 -25 -11
-45 -25 -57 -12 -9 -19 -21 -15 -25 4 -4 14 -1 23 6 19 16 16 19 50 -57 36
-81 72 -115 116 -111 27 2 37 9 48 36 11 25 21 32 42 32 30 0 59 23 59 45 0
11 6 12 26 4 39 -14 60 -3 78 42 24 58 20 159 -5 159 -5 0 -9 -27 -9 -59z
m-132 -18 c14 -28 24 -92 17 -113 -9 -28 -30 -25 -43 5 -18 39 -16 125 3 125
8 0 18 -8 23 -17z"/>
<path d="M1600 3620 c-13 -25 -4 -60 15 -60 23 0 46 40 34 62 -13 24 -36 23
-49 -2z"/>
<path d="M3352 3594 c-77 -38 -162 -119 -162 -153 0 -15 3 -30 6 -34 3 -3 34
10 68 29 65 36 132 49 91 18 -11 -8 -35 -28 -52 -45 -61 -57 -33 -107 54 -95
48 6 123 41 123 56 0 13 4 13 -58 -10 -55 -21 -102 -26 -102 -11 0 5 27 26 60
46 44 27 60 42 60 59 0 34 -19 46 -75 47 -39 1 -32 3 34 10 90 9 121 25 121
65 0 50 -86 59 -168 18z m128 -23 c0 -14 -56 -33 -82 -29 -21 4 -20 6 12 21
39 18 70 22 70 8z"/>
<path d="M1760 3583 c0 -5 8 -38 17 -75 14 -53 15 -70 5 -80 -15 -15 -53 19
-89 80 -29 48 -40 52 -49 17 -9 -37 1 -66 38 -108 41 -46 76 -55 109 -28 20
16 24 27 22 69 -2 52 -29 132 -44 132 -5 0 -9 -3 -9 -7z"/>
<path d="M1618 3454 c-4 -3 2 -24 12 -45 25 -49 25 -50 -8 -43 -15 3 -46 -1
-69 -9 -27 -9 -47 -11 -58 -5 -21 12 -45 3 -45 -16 0 -26 37 -39 74 -25 27 10
40 10 65 -1 52 -21 68 -79 18 -65 -22 6 -22 6 -3 -10 40 -31 85 5 85 70 1 55
-53 167 -71 149z"/>
<path d="M3627 3323 c-14 -13 -6 -43 14 -53 27 -15 49 -6 49 19 0 27 -46 52
-63 34z"/>
<path d="M3485 3283 c-78 -41 -98 -94 -49 -132 20 -16 40 -21 78 -20 61 1 98
10 103 26 3 8 -19 10 -76 6 -70 -5 -81 -4 -81 10 0 20 56 63 95 73 45 10 48
14 29 35 -21 23 -58 24 -99 2z"/>
<path d="M1460 3267 c0 -8 12 -24 26 -38 31 -29 68 -88 61 -96 -12 -11 -56 8
-102 42 -49 38 -65 38 -65 -1 0 -14 -6 -24 -15 -24 -18 0 -35 -31 -35 -62 0
-47 63 -113 119 -124 24 -5 35 -1 56 20 22 22 26 33 21 60 -6 30 -4 34 19 40
52 13 41 71 -30 154 -37 43 -55 52 -55 29z m1 -186 c41 -40 44 -61 9 -61 -21
0 -100 70 -100 88 0 26 51 11 91 -27z"/>
<path d="M3648 3141 c-62 -13 -128 -67 -128 -106 0 -26 39 -62 77 -71 l23 -6
-25 -30 c-28 -33 -30 -41 -15 -67 10 -20 78 -51 110 -51 10 0 22 -9 25 -20 8
-25 37 -41 54 -31 9 6 8 11 -4 21 -23 19 -18 33 18 50 20 10 32 22 32 35 0 28
-32 31 -67 5 -35 -26 -103 -30 -125 -7 -14 14 -13 17 14 30 16 9 47 18 68 22
71 12 76 15 65 34 -13 25 -54 39 -128 44 -95 5 -104 35 -23 72 39 17 40 17 92
-9 107 -53 199 -22 159 54 -19 36 -121 50 -222 31z m192 -55 c9 -12 5 -16 -24
-21 -39 -8 -88 5 -94 23 -6 18 102 16 118 -2z"/>
<path d="M2445 3051 c-16 -11 -66 -49 -110 -84 -44 -36 -82 -61 -83 -56 -2 5
10 22 27 38 32 30 40 68 19 89 -15 15 -261 17 -289 2 -28 -15 -23 -52 11 -85
29 -28 30 -32 30 -121 l0 -93 -186 -147 c-219 -173 -239 -203 -198 -289 21
-45 70 -70 123 -62 l41 5 0 -71 c2 -201 19 -747 25 -757 4 -7 214 -10 655 -10
l648 0 6 48 c3 26 11 213 17 415 l12 368 41 -6 c85 -13 154 75 128 162 -11 35
-48 68 -384 334 -204 162 -386 304 -404 317 -40 27 -89 28 -129 3z m452 -293
c416 -329 443 -353 443 -394 0 -40 -34 -92 -65 -100 -38 -9 -58 2 -222 132
-81 65 -188 150 -238 189 -49 39 -133 106 -186 148 -54 42 -105 77 -116 77
-10 0 -46 -21 -79 -48 -32 -26 -126 -100 -209 -164 -82 -64 -210 -164 -284
-223 -117 -92 -139 -105 -172 -105 -61 0 -97 49 -85 115 6 30 37 58 263 237
142 112 318 251 393 310 107 86 141 108 167 108 27 0 90 -46 390 -282z m-613
254 c6 -10 -15 -37 -41 -51 -18 -9 -23 -21 -23 -49 0 -35 -5 -42 -67 -90 l-68
-51 -3 87 c-3 83 -4 87 -34 112 -50 42 -33 50 107 50 68 0 126 -3 129 -8z
m288 -274 c99 -76 552 -436 575 -457 12 -12 21 -27 18 -34 -2 -6 -9 -181 -15
-387 -6 -206 -13 -385 -16 -397 l-4 -23 -624 0 -624 0 -6 88 c-3 48 -8 236
-12 417 l-6 331 258 204 c143 112 286 225 319 252 33 26 65 48 71 48 6 0 36
-19 66 -42z"/>
<path d="M2342 2453 l3 -78 78 -3 77 -3 0 81 0 80 -80 0 -81 0 3 -77z"/>
<path d="M2530 2450 l0 -80 68 0 c37 0 73 4 80 9 9 5 12 28 10 77 l-3 69 -77
3 -78 3 0 -81z"/>
<path d="M2344 2326 c-3 -7 -4 -42 -2 -77 l3 -64 78 -3 77 -3 0 81 0 80 -75 0
c-54 0 -77 -4 -81 -14z"/>
<path d="M2530 2260 l0 -81 78 3 77 3 0 75 0 75 -77 3 -78 3 0 -81z"/>
<path d="M2140 2153 c-20 -8 -50 -34 -50 -45 0 -13 27 -9 40 7 16 20 60 19 88
-1 30 -21 42 -9 16 16 -20 21 -69 33 -94 23z"/>
<path d="M2820 2153 c-20 -7 -50 -34 -50 -45 0 -13 27 -9 40 7 16 19 60 19 87
0 32 -22 38 0 7 24 -26 21 -54 25 -84 14z"/>
<path d="M2805 1993 c-33 -8 -74 -54 -81 -90 -13 -71 39 -133 111 -133 54 0
91 28 106 80 7 22 23 47 36 55 12 9 23 24 23 35 0 26 -12 25 -28 0 -7 -11 -17
-20 -22 -20 -6 0 -1 13 11 30 13 16 19 33 15 37 -4 4 -16 -3 -26 -17 l-19 -25
-23 22 c-25 24 -69 35 -103 26z m58 -75 c8 -12 7 -21 -2 -32 -19 -23 -58 -20
-66 4 -14 43 44 67 68 28z m24 -74 c8 -20 -8 -36 -26 -25 -15 10 -8 41 9 41 6
0 13 -7 17 -16z"/>
<path d="M2050 1976 c0 -8 7 -22 16 -31 9 -9 13 -19 9 -23 -4 -4 -15 4 -26 17
-11 13 -22 21 -26 18 -7 -8 24 -57 37 -57 6 0 10 -10 10 -22 0 -30 33 -84 61
-99 13 -6 40 -12 62 -12 30 0 46 7 70 32 27 27 32 39 32 81 0 40 -5 54 -29 79
-25 26 -37 31 -77 31 -31 0 -55 -6 -72 -20 l-26 -21 -13 21 c-15 23 -28 26
-28 6z m158 -48 c34 -34 -7 -79 -46 -52 -12 8 -22 21 -22 28 0 17 21 36 40 36
9 0 21 -5 28 -12z m30 -95 c-2 -10 -10 -18 -18 -18 -8 0 -16 8 -18 18 -2 12 3
17 18 17 15 0 20 -5 18 -17z"/>
<path d="M2392 1757 c15 -183 238 -173 238 11 l0 42 -121 0 -121 0 4 -53z
m155 -58 l28 -11 -24 -19 c-29 -24 -53 -24 -82 0 -19 16 -21 21 -9 24 8 3 22
8 30 10 23 8 27 8 57 -4z"/>
<path d="M1113 2972 c-6 -4 -17 -21 -23 -37 -17 -46 4 -115 52 -170 39 -44 40
-46 24 -71 -10 -13 -34 -32 -54 -42 -49 -22 -49 -22 -32 -32 33 -21 68 -11
103 30 l35 41 36 -22 c51 -30 141 -36 186 -12 49 25 80 76 80 129 0 36 -6 51
-36 84 -75 82 -184 70 -184 -22 0 -48 29 -81 68 -76 39 4 41 34 3 41 -36 8
-58 41 -40 63 34 41 137 -10 154 -77 5 -21 0 -34 -22 -59 -27 -30 -35 -33 -85
-33 -34 0 -70 7 -94 19 l-39 19 -5 80 c-6 80 -16 109 -46 139 -16 17 -61 21
-81 8z m67 -40 c18 -14 24 -32 28 -75 2 -31 1 -64 -2 -73 -6 -15 -10 -14 -35
10 -82 79 -73 205 9 138z"/>
<path d="M3594 2715 c-31 -31 -26 -58 19 -97 31 -27 123 -65 134 -55 11 11 -9
26 -56 42 -110 36 -98 81 19 73 63 -5 70 -3 70 13 0 30 -39 49 -103 49 -49 0
-62 -4 -83 -25z"/>
<path d="M3816 2701 c-11 -18 13 -61 34 -61 26 0 35 22 20 49 -11 21 -44 28
-54 12z"/>
<path d="M1494 1636 c-3 -8 -4 -29 -1 -48 3 -30 4 -30 5 9 1 23 8 44 15 46 9
4 9 6 -1 6 -7 1 -15 -5 -18 -13z"/>
<path d="M1440 1591 c0 -11 4 -22 9 -25 4 -3 6 6 3 19 -5 30 -12 33 -12 6z"/>
<path d="M3545 1580 c10 -11 20 -20 23 -20 3 0 -3 9 -13 20 -10 11 -20 20 -23
20 -3 0 3 -9 13 -20z"/>
<path d="M3580 1551 c0 -5 -15 -12 -32 -14 -29 -3 -27 -4 10 -5 39 -2 55 9 32
23 -5 3 -10 2 -10 -4z"/>
<path d="M1524 1525 c-13 -20 -14 -30 -6 -48 11 -21 11 -21 6 5 -4 19 0 32 15
47 12 12 17 21 11 21 -5 0 -17 -11 -26 -25z"/>
<path d="M1598 1540 c29 -33 8 -79 -37 -81 -25 -2 -25 -2 -3 -6 49 -9 83 59
45 88 -15 11 -16 11 -5 -1z"/>
<path d="M3480 1536 c0 -2 17 -16 38 -31 34 -24 35 -25 10 -2 -15 14 -24 28
-21 31 4 3 -1 6 -10 6 -9 0 -17 -2 -17 -4z"/>
<path d="M3402 1449 c-1 -25 3 -41 15 -50 16 -13 17 -12 5 3 -20 25 -11 61 18
75 l25 12 -30 -2 c-27 -2 -30 -6 -33 -38z"/>
<path d="M3486 1455 c24 -39 24 -40 24 -28 0 6 -9 21 -21 34 l-20 24 17 -30z"/>
<path d="M1637 1432 c-29 -31 -34 -51 -15 -70 20 -20 43 -14 74 21 l29 32 -32
-28 c-57 -52 -100 -11 -47 44 15 16 25 29 23 29 -3 0 -17 -13 -32 -28z"/>
<path d="M3485 1401 c-6 -5 -19 -11 -30 -14 -19 -4 -19 -5 1 -6 12 0 27 6 34
14 14 16 10 20 -5 6z"/>
<path d="M3350 1394 c0 -6 15 -23 32 -40 l33 -29 -25 30 c-14 17 -28 34 -32
40 -5 5 -8 5 -8 -1z"/>
<path d="M1746 1365 c-3 -9 -6 -22 -5 -28 0 -7 5 -1 10 12 5 13 8 26 5 28 -2
2 -6 -3 -10 -12z"/>
<path d="M3280 1350 c-11 -11 -20 -28 -19 -37 0 -13 3 -11 10 6 5 13 17 30 27
37 9 7 14 14 10 14 -5 0 -17 -9 -28 -20z"/>
<path d="M1775 1309 c-27 -17 -30 -17 -36 -2 -5 14 -7 13 -11 -5 -8 -29 7 -28
57 3 22 13 36 24 30 24 -5 0 -23 -9 -40 -20z"/>
<path d="M1831 1264 c-26 -44 -26 -51 2 -64 20 -10 20 -10 5 3 -34 27 -15 56
24 37 l23 -11 -23 18 c-21 17 -22 21 -8 32 8 7 21 9 27 5 8 -4 9 -3 5 4 -13
22 -34 12 -55 -24z"/>
<path d="M3348 1278 c-10 -10 -14 -18 -9 -18 10 0 36 29 30 34 -2 1 -12 -6
-21 -16z"/>
<path d="M3282 1274 c10 -10 20 -16 22 -13 3 3 -5 11 -17 18 -21 13 -21 12 -5
-5z"/>
<path d="M3180 1272 c0 -5 12 -14 27 -21 22 -10 24 -14 12 -22 -21 -13 -29
-11 -29 8 0 9 -3 14 -6 11 -3 -3 -2 -23 2 -44 7 -35 8 -37 14 -14 5 20 12 25
38 25 18 0 32 1 32 2 0 1 -20 16 -45 33 -25 17 -45 27 -45 22z"/>
<path d="M1919 1199 c-11 -23 -16 -38 -11 -35 5 3 15 20 23 37 11 28 14 30 20
13 7 -17 8 -17 8 4 1 34 -16 26 -40 -19z"/>
<path d="M3070 1220 c-11 -8 -7 -9 14 -4 27 6 29 5 24 -18 -3 -18 1 -27 20
-36 23 -10 23 -10 9 6 -8 9 -17 26 -19 37 -4 23 -26 30 -48 15z"/>
<path d="M1992 1174 c-16 -35 -17 -35 -23 -13 -7 23 -7 23 -8 -3 -2 -43 14
-40 37 7 12 25 19 45 17 45 -3 0 -13 -16 -23 -36z"/>
<path d="M3041 1207 c-1 -8 37 -87 42 -87 1 0 2 11 2 25 0 14 -5 25 -11 25 -6
0 -16 10 -22 23 -6 12 -11 18 -11 14z"/>
<path d="M2046 1150 c-22 -56 -19 -65 5 -11 11 24 18 46 15 48 -2 2 -11 -14
-20 -37z"/>
<path d="M2942 1164 c-26 -18 -29 -56 -6 -78 22 -22 31 -20 11 2 -26 28 -21
59 11 76 15 8 22 15 17 16 -6 0 -21 -7 -33 -16z"/>
<path d="M2115 1159 c-11 -16 -1 -19 13 -3 7 8 8 14 3 14 -5 0 -13 -5 -16 -11z"/>
<path d="M3001 1153 c7 -12 15 -20 18 -17 3 2 -3 12 -13 22 -17 16 -18 16 -5
-5z"/>
<path d="M2160 1153 c5 -2 10 -13 10 -24 0 -13 -7 -19 -22 -19 -18 0 -20 -2
-8 -10 19 -12 42 7 38 33 -2 11 -9 22 -16 23 -7 1 -8 0 -2 -3z"/>
<path d="M2819 1123 c-12 -16 -12 -17 1 -6 8 6 26 13 40 16 l25 4 -26 2 c-15
0 -33 -7 -40 -16z"/>
<path d="M2097 1108 c-8 -29 -4 -32 11 -8 6 10 8 21 3 24 -5 3 -11 -4 -14 -16z"/>
<path d="M2230 1111 c0 -11 8 -26 19 -33 10 -7 21 -22 24 -33 4 -18 5 -18 6 2
1 13 -7 27 -19 33 -27 14 -25 38 3 43 19 4 18 4 -5 6 -22 1 -28 -4 -28 -18z"/>
<path d="M2713 1113 c-8 -3 -12 -20 -12 -41 l2 -37 6 35 c4 25 12 36 31 41 19
5 20 7 5 7 -11 0 -26 -2 -32 -5z"/>
<path d="M2390 1103 c0 -5 3 -13 8 -17 4 -4 12 -22 19 -39 8 -21 12 -26 12
-13 1 11 9 29 19 40 16 20 16 20 -2 6 -16 -13 -20 -12 -37 9 -11 13 -19 19
-19 14z"/>
<path d="M3010 1101 c0 -6 -10 -16 -22 -21 -16 -6 -18 -9 -7 -9 19 -1 45 26
35 36 -3 3 -6 1 -6 -6z"/>
<path d="M2572 1048 c3 -45 6 -53 23 -54 15 -1 16 0 3 3 -14 3 -18 15 -18 49
0 42 1 44 30 44 24 0 31 -5 36 -27 4 -15 2 -35 -6 -47 -12 -19 -12 -20 3 -7
19 15 22 43 7 72 -8 13 -21 19 -46 19 l-35 0 3 -52z"/>
<path d="M2800 1090 c-1 -40 66 -81 84 -52 3 5 -8 6 -25 4 -25 -4 -31 0 -44
29 -8 19 -14 27 -15 19z"/>
<path d="M2151 1064 c0 -11 3 -14 6 -6 3 7 2 16 -1 19 -3 4 -6 -2 -5 -13z"/>
<path d="M2728 1063 c6 -2 18 -2 25 0 6 3 1 5 -13 5 -14 0 -19 -2 -12 -5z"/>
<path d="M2711 1014 c0 -11 3 -14 6 -6 3 7 2 16 -1 19 -3 4 -6 -2 -5 -13z"/>
<path d="M2748 1013 c7 -3 16 -2 19 1 4 3 -2 6 -13 5 -11 0 -14 -3 -6 -6z"/>
</g>
</svg>
