<svg version="1.1" xmlns="http://www.w3.org/2000/svg" viewBox="0 0 145 143" width="145" height="143">
  <!-- svg-source:excalidraw -->
  
  <defs>
    <style class="style-fonts">
      @font-face {
        font-family: "Virgil";
        src: url("https://excalidraw.com/Virgil.woff2");
      }
      @font-face {
        font-family: "Cascadia";
        src: url("https://excalidraw.com/Cascadia.woff2");
      }
      @font-face {
        font-family: "Assistant";
        src: url("https://excalidraw.com/Assistant-Regular.woff2");
      }
    </style>
    
  </defs>
  <rect x="0" y="0" width="145" height="143" fill="#ffffff"></rect><g stroke-linecap="round" transform="translate(10 10) rotate(0 62.5 61.5)"><path d="M34.84 5.1 C42.71 0.21, 54.98 -1.11, 64.82 -0.7 C74.66 -0.3, 85.51 2.72, 93.87 7.53 C102.23 12.34, 109.89 19.88, 114.99 28.17 C120.09 36.46, 123.76 47.9, 124.47 57.28 C125.18 66.65, 123.06 75.81, 119.24 84.45 C115.42 93.09, 108.94 103.04, 101.56 109.12 C94.18 115.19, 84.31 118.81, 74.96 120.89 C65.61 122.96, 54.89 123.94, 45.47 121.57 C36.05 119.21, 25.5 113.58, 18.43 106.69 C11.36 99.79, 5.91 89.21, 3.07 80.19 C0.22 71.17, -0.37 61.88, 1.34 52.56 C3.04 43.24, 6.94 32.48, 13.29 24.26 C19.64 16.03, 34.35 6.71, 39.41 3.19 C44.48 -0.33, 43.34 2.02, 43.68 3.13 M82.91 1.8 C91.68 3.97, 100.56 11.23, 107.15 18.48 C113.74 25.74, 119.71 36.02, 122.45 45.32 C125.2 54.62, 125.35 64.99, 123.6 74.27 C121.85 83.54, 117.92 93.75, 111.94 100.97 C105.96 108.19, 96.94 113.83, 87.7 117.58 C78.46 121.33, 66.23 124, 56.51 123.47 C46.79 122.93, 37.56 119.62, 29.36 114.37 C21.16 109.12, 12.34 100.42, 7.31 91.96 C2.27 83.51, -0.74 73.02, -0.85 63.64 C-0.97 54.27, 2.27 44.29, 6.59 35.69 C10.9 27.1, 17.62 17.65, 25.04 12.07 C32.45 6.49, 41.63 3.87, 51.09 2.19 C60.56 0.51, 76.55 1.85, 81.81 1.99 C87.07 2.13, 83.05 1.8, 82.65 3.05" stroke="none" stroke-width="0" fill="#ffc9c9"></path><path d="M35.46 6.49 C43.33 1.93, 55.77 -0.52, 65.53 -0.13 C75.29 0.25, 85.55 3.83, 94 8.79 C102.45 13.74, 111.2 21.55, 116.22 29.6 C121.24 37.65, 123.56 47.63, 124.11 57.09 C124.66 66.56, 123.4 77.7, 119.52 86.39 C115.64 95.08, 108.27 103.25, 100.86 109.23 C93.44 115.21, 84.39 120.29, 75.03 122.29 C65.68 124.29, 54.04 123.91, 44.71 121.23 C35.38 118.54, 26.11 112.97, 19.05 106.18 C11.99 99.38, 5.37 89.71, 2.33 80.44 C-0.71 71.18, -0.82 60.01, 0.79 50.57 C2.4 41.14, 5.71 31.47, 11.99 23.83 C18.28 16.2, 34.01 7.79, 38.5 4.76 C43 1.73, 38.73 4.74, 38.96 5.63 M37.29 6.04 C45.45 1.77, 55.98 0.81, 65.55 1.36 C75.12 1.9, 86.55 4.53, 94.73 9.3 C102.92 14.07, 109.72 21.83, 114.66 29.97 C119.6 38.11, 123.57 48.53, 124.38 58.15 C125.19 67.77, 123.09 79, 119.51 87.68 C115.94 96.35, 110.57 104.32, 102.95 110.19 C95.32 116.06, 83.34 121.08, 73.77 122.92 C64.21 124.76, 54.67 124.13, 45.57 121.22 C36.47 118.31, 26.21 112.12, 19.18 105.46 C12.14 98.8, 6.61 90.52, 3.36 81.27 C0.11 72.03, -1.75 59.76, -0.34 50 C1.07 40.23, 5.45 29.88, 11.82 22.68 C18.18 15.48, 33.64 9.62, 37.85 6.81 C42.06 4, 36.81 5.01, 37.08 5.84" stroke="#1e1e1e" stroke-width="2" fill="none"></path></g><g transform="translate(49 61) rotate(0 23 12.5)"><text x="0" y="17.52" font-family="Virgil, Segoe UI Emoji" font-size="20px" fill="#1e1e1e" text-anchor="start" style="white-space: pre;" direction="ltr" dominant-baseline="alphabetic">Chilvi</text></g></svg>